<svg
      xmlns="http://www.w3.org/2000/svg"
      //   xmlns:xlink="http://www.w3.org/1999/xlink"
      width="32"
      zoomAndPan="magnify"
      viewBox="0 0 810 809.999993"
      height="32"
      preserveAspectRatio="xMidYMid meet"
      version="1.0"
    >
      <defs>
        <clipPath id="9ccd20eeb0">
          <path
            d="M 1 95 L 806 95 L 806 726.28125 L 1 726.28125 Z M 1 95 "
            clipRule="nonzero"
          />
        </clipPath>
      </defs>
      <g clipPath="url(#9ccd20eeb0)">
        <path
          fill="#a855f7"
          d="M 747.296875 322.199219 C 755.175781 279.109375 731.699219 245.027344 701.476562 228.789062 C 688.453125 221.875 673.015625 217.695312 657.101562 217.53125 C 645.84375 185.214844 622.210938 156.917969 592.46875 140.359375 C 567.226562 126.371094 539.25 122.191406 513.203125 128.460938 C 444.550781 83.765625 302.261719 85.535156 249.527344 126.210938 C 237.308594 135.535156 229.914062 146.789062 227.339844 159.171875 C 199.042969 155.953125 169.136719 157.722656 143.734375 163.992188 C 105.632812 173.480469 78.300781 193.09375 64.792969 220.585938 C 60.132812 229.914062 57.398438 239.71875 56.273438 249.527344 C 23.632812 253.867188 2.894531 278.949219 1.445312 317.054688 C 0 352.425781 15.433594 390.851562 42.445312 413.683594 C 41.160156 453.074219 53.699219 486.355469 78.621094 510.148438 C 101.289062 531.691406 132.160156 543.109375 166.726562 543.109375 C 169.621094 543.109375 172.675781 542.949219 175.570312 542.785156 C 177.175781 550.503906 179.75 556.773438 182.484375 561.757812 C 202.742188 600.34375 253.386719 619.960938 297.921875 619.960938 C 302.261719 619.960938 306.441406 619.800781 310.625 619.316406 C 368.019531 645.523438 412.394531 679.929688 442.621094 721.734375 C 444.710938 724.625 448.089844 726.234375 451.464844 726.234375 C 452.269531 726.234375 452.910156 726.234375 453.714844 726.074219 L 523.976562 711.28125 C 529.28125 710.15625 532.980469 705.496094 532.65625 700.027344 C 531.855469 681.539062 526.066406 649.542969 517.867188 625.75 C 533.300781 628.964844 549.21875 630.570312 565.136719 630.570312 C 578.320312 630.570312 591.339844 629.445312 604.042969 627.355469 C 666.585938 616.582031 706.78125 581.695312 711.765625 535.230469 C 716.75 534.425781 721.410156 533.140625 725.753906 531.371094 C 772.859375 511.597656 778.488281 487.15625 776.558594 472.207031 C 791.832031 465.132812 801.640625 452.269531 804.371094 435.066406 C 810 400.015625 783.792969 349.050781 747.296875 322.199219 Z M 510.148438 691.988281 L 456.289062 703.242188 C 428.632812 667.066406 391.171875 636.359375 344.546875 611.601562 C 368.34375 602.113281 385.0625 584.910156 391.976562 562.242188 C 400.175781 561.757812 408.375 560.152344 416.414062 557.898438 C 430.402344 586.679688 458.058594 606.777344 491.339844 618.511719 C 499.054688 633.304688 507.578125 668.355469 510.148438 691.988281 Z M 600.34375 605.972656 C 589.089844 607.902344 577.515625 608.867188 565.617188 608.867188 C 512.398438 608.867188 457.414062 589.25 436.996094 550.183594 C 445.675781 546.164062 453.714844 541.339844 460.949219 536.195312 C 478.957031 543.429688 499.214844 547.289062 519.472656 547.289062 C 556.453125 547.289062 593.109375 534.585938 615.296875 507.253906 C 637.003906 523.171875 664.65625 533.945312 689.417969 536.035156 C 682.34375 587.644531 620.28125 602.433594 600.34375 605.972656 Z M 782.667969 431.851562 C 781.222656 441.335938 776.398438 448.089844 768.199219 452.109375 C 759.355469 439.890625 744.402344 429.597656 726.71875 422.6875 C 726.234375 390.046875 710.960938 350.65625 676.554688 333.773438 C 671.085938 331.042969 664.496094 333.292969 661.921875 338.757812 C 659.191406 344.226562 661.441406 350.816406 666.90625 353.390625 C 690.863281 365.128906 702.441406 391.976562 704.53125 416.253906 C 693.917969 414.164062 682.984375 413.359375 672.050781 414.164062 C 665.941406 414.484375 661.441406 419.792969 661.761719 425.902344 C 662.085938 432.011719 667.390625 436.511719 673.5 436.191406 C 687.164062 435.386719 700.671875 437.316406 712.570312 441.015625 C 712.730469 441.015625 712.730469 441.015625 712.890625 441.175781 C 732.988281 447.445312 748.582031 458.699219 753.566406 469.953125 C 753.566406 469.953125 753.566406 470.113281 753.566406 470.113281 C 754.050781 471.242188 754.371094 472.367188 754.691406 473.492188 C 757.746094 486.355469 744.082031 500.179688 717.390625 511.433594 C 712.890625 513.363281 707.585938 514.328125 701.796875 514.652344 C 701.636719 514.652344 701.476562 514.652344 701.3125 514.652344 C 701.152344 514.652344 700.992188 514.652344 700.671875 514.652344 C 669.480469 515.617188 624.785156 494.714844 606.777344 467.863281 C 594.71875 450.019531 596.488281 433.78125 612.082031 418.023438 C 616.421875 413.683594 616.261719 406.769531 612.082031 402.425781 C 607.742188 398.085938 600.828125 398.246094 596.488281 402.425781 C 573.65625 425.417969 570.921875 453.714844 588.609375 479.921875 C 591.664062 484.425781 595.039062 488.605469 598.898438 492.625 C 573.65625 524.457031 521.402344 531.691406 480.082031 519.3125 C 480.566406 518.671875 481.207031 518.1875 481.691406 517.542969 C 485.710938 513.042969 485.226562 505.96875 480.726562 502.109375 C 476.222656 498.25 469.148438 498.574219 465.292969 503.074219 C 455.164062 514.652344 438.121094 526.546875 419.308594 533.785156 C 419.308594 533.785156 419.148438 533.785156 419.148438 533.785156 C 419.148438 533.785156 418.988281 533.785156 418.988281 533.785156 C 407.894531 537.964844 396.15625 540.375 384.902344 540.214844 C 368.183594 539.894531 354.996094 533.785156 345.351562 521.886719 C 341.492188 517.222656 334.578125 516.417969 329.917969 520.277344 C 325.253906 524.136719 324.449219 531.050781 328.308594 535.710938 C 338.921875 548.734375 352.90625 557.257812 369.46875 560.472656 C 358.855469 586.035156 332.007812 594.074219 315.605469 596.488281 C 269.785156 603.398438 218.820312 583.140625 202.097656 551.308594 C 188.753906 525.90625 197.757812 495.195312 228.304688 462.398438 C 261.90625 426.222656 421.882812 328.792969 507.414062 326.539062 C 513.523438 326.378906 518.347656 321.394531 518.1875 315.285156 C 518.027344 309.175781 513.042969 304.351562 506.933594 304.515625 C 478.636719 305.316406 445.035156 314.964844 413.84375 327.183594 C 404.839844 300.171875 409.339844 268.015625 436.191406 254.351562 C 441.65625 251.617188 443.746094 245.027344 441.015625 239.558594 C 438.28125 234.09375 431.6875 232.003906 426.222656 234.734375 C 387.636719 254.351562 380.882812 299.046875 393.425781 335.542969 C 372.363281 344.546875 353.390625 354.195312 339.082031 361.75 C 308.695312 377.828125 279.109375 395.835938 255.316406 412.394531 C 255.796875 395.515625 262.710938 377.988281 269.945312 359.820312 C 281.039062 331.847656 293.257812 300.65625 282.648438 267.855469 C 303.550781 266.25 324.128906 263.515625 341.011719 254.351562 C 366.089844 240.84375 377.667969 216.40625 376.542969 179.75 C 376.382812 173.640625 371.398438 168.976562 365.128906 169.136719 C 359.015625 169.300781 354.355469 174.445312 354.515625 180.554688 C 356.445312 238.433594 322.519531 243.417969 266.890625 246.957031 C 228.949219 249.367188 186.019531 251.9375 173.800781 291.492188 C 172.03125 297.277344 175.246094 303.386719 181.035156 305.316406 C 182.160156 305.640625 183.285156 305.800781 184.25 305.800781 C 188.914062 305.800781 193.253906 302.746094 194.703125 298.082031 C 201.453125 276.378906 223.804688 272.035156 259.65625 269.625 C 271.234375 296.957031 260.621094 323.644531 249.367188 351.941406 C 239.71875 376.382812 229.75 401.625 234.253906 427.992188 C 224.929688 435.226562 217.371094 441.980469 212.066406 447.605469 C 185.699219 475.902344 176.050781 500.664062 174.445312 520.761719 C 142.449219 522.527344 113.992188 513.203125 93.894531 494.070312 C 76.371094 477.511719 66.402344 454.679688 64.632812 427.507812 C 72.671875 431.046875 81.515625 433.296875 90.839844 434.101562 C 91.160156 434.101562 91.484375 434.101562 91.804688 434.101562 C 97.429688 434.101562 102.253906 429.761719 102.738281 423.972656 C 103.21875 417.863281 98.71875 412.554688 92.609375 412.074219 C 49.839844 408.699219 21.867188 359.660156 23.472656 317.859375 C 23.957031 304.996094 28.457031 277.019531 56.753906 271.714844 C 58.039062 280.558594 60.933594 289.402344 65.113281 297.601562 C 75.726562 318.019531 94.054688 332.328125 116.082031 337.957031 C 123.316406 368.824219 143.574219 395.675781 179.589844 401.300781 C 180.230469 401.464844 180.714844 401.464844 181.359375 401.464844 C 186.664062 401.464844 191.324219 397.605469 192.128906 392.136719 C 193.09375 386.1875 188.914062 380.5625 182.964844 379.597656 C 147.914062 374.128906 133.605469 338.757812 135.054688 306.121094 C 135.375 300.011719 130.550781 294.867188 124.601562 294.707031 C 118.492188 294.382812 113.347656 299.207031 113.1875 305.15625 C 113.027344 308.050781 113.027344 310.945312 113.1875 313.679688 C 101.128906 308.535156 91 299.367188 84.890625 287.308594 C 80.390625 278.628906 78.136719 269.304688 77.976562 259.816406 C 77.976562 259.816406 77.976562 259.65625 77.976562 259.65625 C 77.976562 259.496094 77.976562 259.496094 77.976562 259.335938 C 77.976562 249.527344 80.226562 239.558594 84.890625 230.234375 C 109.328125 180.394531 185.214844 176.210938 228.144531 181.359375 C 229.914062 188.914062 233.128906 196.792969 237.953125 204.832031 C 241.167969 209.976562 247.917969 211.585938 253.066406 208.367188 C 258.210938 205.152344 259.816406 198.398438 256.601562 193.253906 C 251.617188 185.214844 249.046875 177.980469 248.5625 171.230469 C 248.5625 171.066406 248.5625 171.066406 248.5625 170.90625 C 247.917969 160.457031 252.742188 151.453125 263.195312 143.414062 C 287.148438 125.085938 337.472656 114.957031 391.332031 117.691406 C 446.964844 120.582031 494.875 136.339844 516.257812 158.847656 C 536.515625 180.230469 532.65625 207.886719 504.359375 240.683594 C 500.339844 245.347656 500.984375 252.261719 505.484375 256.121094 C 507.578125 257.886719 510.148438 258.691406 512.558594 258.691406 C 515.617188 258.691406 518.671875 257.40625 520.921875 254.832031 C 565.9375 202.257812 550.988281 165.921875 535.230469 147.273438 C 554.203125 146.789062 570.28125 152.898438 581.695312 159.332031 C 605.488281 172.515625 624.621094 194.703125 634.589844 220.105469 C 615.296875 225.089844 596.488281 236.988281 581.695312 258.371094 C 567.707031 278.46875 561.597656 304.351562 555.648438 329.433594 C 548.734375 358.375 542.144531 385.867188 524.941406 395.996094 C 516.742188 400.820312 505.808594 402.105469 491.660156 399.371094 C 491.660156 398.085938 491.660156 396.800781 491.660156 395.351562 C 491.5 389.242188 486.515625 384.421875 480.40625 384.582031 C 474.296875 384.742188 469.472656 389.726562 469.632812 395.835938 C 469.632812 399.050781 469.3125 401.945312 468.828125 404.839844 C 468.828125 404.839844 468.828125 405 468.828125 405 C 465.453125 420.113281 453.394531 430.242188 442.78125 436.351562 C 421.078125 449.054688 392.78125 451.949219 382.8125 446 C 377.667969 442.945312 370.914062 444.550781 367.699219 449.855469 C 364.644531 455.003906 366.253906 461.753906 371.558594 464.96875 C 378.472656 469.152344 387.957031 471.078125 398.40625 471.078125 C 415.933594 471.078125 436.511719 465.613281 453.875 455.484375 C 469.632812 446.320312 480.726562 434.421875 486.675781 420.917969 C 493.265625 422.203125 499.375 422.847656 505.164062 422.847656 C 516.902344 422.847656 527.191406 420.273438 536.035156 414.96875 C 561.277344 400.015625 569.152344 366.734375 576.871094 334.578125 C 582.339844 311.589844 587.964844 287.632812 599.703125 270.910156 C 613.367188 251.136719 631.214844 241.808594 648.898438 239.71875 C 648.898438 239.71875 648.898438 239.71875 649.0625 239.71875 C 649.703125 239.71875 650.507812 239.558594 651.152344 239.558594 C 665.140625 238.433594 679.125 241.648438 690.863281 248.082031 C 715.300781 261.265625 737.808594 291.8125 720.605469 334.902344 C 718.355469 340.527344 721.089844 346.960938 726.71875 349.210938 C 731.863281 351.300781 737.488281 349.210938 740.222656 344.707031 C 767.074219 367.699219 786.6875 406.609375 782.667969 431.851562 Z M 782.667969 431.851562 "
          fillOpacity="1"
          fillRule="nonzero"
        />
      </g>
    </svg>